<svg width="37" height="33" viewBox="0 0 37 33" fill="none" xmlns="http://www.w3.org/2000/svg">
<path d="M27.538 27.2201L25.8715 12.2201C25.8336 11.876 25.67 11.558 25.412 11.3271C25.1541 11.0963 24.82 10.9688 24.4738 10.9691H20.1343C20.0175 9.68823 19.426 8.49732 18.4761 7.63016C17.5263 6.763 16.2865 6.28223 15.0004 6.28223C13.7142 6.28223 12.4745 6.763 11.5246 7.63016C10.5747 8.49732 9.98325 9.68823 9.86637 10.9691H5.52692C5.18075 10.9688 4.84665 11.0963 4.5887 11.3271C4.33076 11.558 4.16714 11.876 4.12922 12.2201L2.4627 27.2201C2.44086 27.4166 2.46073 27.6156 2.52101 27.8039C2.58128 27.9923 2.68061 28.1658 2.8125 28.3132C2.94439 28.4605 3.10588 28.5784 3.28643 28.6591C3.46697 28.7398 3.66251 28.7816 3.86028 28.7816H26.1403C26.3381 28.7816 26.5336 28.7399 26.7142 28.6592C26.8948 28.5785 27.0563 28.4606 27.1882 28.3132C27.3201 28.1658 27.4194 27.9923 27.4797 27.804C27.54 27.6156 27.5599 27.4166 27.538 27.2201V27.2201ZM15.0004 7.21908C16.0376 7.22046 17.0381 7.60342 17.8112 8.29499C18.5843 8.98655 19.0759 9.93838 19.1924 10.9691H10.8083C10.9248 9.93838 11.4164 8.98655 12.1895 8.29499C12.9626 7.60342 13.9631 7.22046 15.0004 7.21908V7.21908ZM26.4897 27.688C26.4459 27.7374 26.3922 27.7769 26.3319 27.8038C26.2717 27.8307 26.2064 27.8445 26.1404 27.8441H3.86028C3.79436 27.8441 3.72918 27.8302 3.669 27.8033C3.60882 27.7763 3.55499 27.737 3.51103 27.6879C3.46707 27.6388 3.43396 27.5809 3.41388 27.5182C3.39379 27.4554 3.38717 27.3891 3.39446 27.3235L5.0611 12.3235C5.07374 12.2089 5.12828 12.1029 5.21424 12.0259C5.30021 11.949 5.41155 11.9065 5.52692 11.9066H9.84411V15.1878C9.84411 15.3122 9.89349 15.4314 9.9814 15.5193C10.0693 15.6072 10.1885 15.6566 10.3129 15.6566C10.4372 15.6566 10.5564 15.6072 10.6443 15.5193C10.7322 15.4314 10.7816 15.3122 10.7816 15.1878V11.9066H19.2191V15.1878C19.2191 15.3122 19.2685 15.4314 19.3564 15.5193C19.4443 15.6072 19.5635 15.6566 19.6879 15.6566C19.8122 15.6566 19.9314 15.6072 20.0193 15.5193C20.1072 15.4314 20.1566 15.3122 20.1566 15.1878V11.9066H24.4738C24.5892 11.9065 24.7005 11.949 24.7865 12.0259C24.8724 12.1029 24.927 12.2089 24.9396 12.3235L26.6063 27.3235C26.6139 27.3891 26.6075 27.4555 26.5873 27.5184C26.5672 27.5812 26.5339 27.6391 26.4897 27.688V27.688Z" fill="white"/>
<circle cx="29" cy="8.86523" r="8" fill="#43FFD2"/>
<path d="M28.916 14.096C28.076 14.096 27.472 13.86 27.104 13.388C26.744 12.908 26.564 12.204 26.564 11.276H27.848C27.848 11.82 27.92 12.256 28.064 12.584C28.216 12.912 28.508 13.076 28.94 13.076C29.268 13.076 29.512 12.98 29.672 12.788C29.832 12.596 29.932 12.344 29.972 12.032C30.02 11.712 30.044 11.288 30.044 10.76C30.044 10.272 30.016 9.884 29.96 9.596C29.912 9.3 29.808 9.076 29.648 8.924C29.496 8.764 29.264 8.684 28.952 8.684C28.704 8.684 28.484 8.76 28.292 8.912C28.108 9.064 27.968 9.256 27.872 9.488H26.78V4.28H30.968V5.564H27.944L27.86 8.252C28.204 7.892 28.672 7.712 29.264 7.712C30.008 7.712 30.536 7.968 30.848 8.48C31.168 8.984 31.328 9.688 31.328 10.592C31.328 11.696 31.148 12.556 30.788 13.172C30.428 13.788 29.804 14.096 28.916 14.096Z" fill="#142B2B"/>
</svg>
